<?xml version="1.0" encoding="UTF-8" standalone="no"?>
<!DOCTYPE svg PUBLIC "-//W3C//DTD SVG 1.1//EN" "http://www.w3.org/Graphics/SVG/1.1/DTD/svg11.dtd">
<svg width="100%" height="100%" viewBox="0 0 3840 2160" version="1.1" xmlns="http://www.w3.org/2000/svg" xmlns:xlink="http://www.w3.org/1999/xlink" xml:space="preserve" xmlns:serif="http://www.serif.com/" style="fill-rule:evenodd;clip-rule:evenodd;stroke-linejoin:round;stroke-miterlimit:2;">
    <g transform="matrix(0.556387,0,0,1.12109,590.974,192.207)">
        <ellipse cx="2035.5" cy="981" rx="935.5" ry="256" style="fill:rgb(53,189,255);"/>
    </g>
    <g transform="matrix(0.440134,0,0,0.805312,835.215,505.872)">
        <ellipse cx="2035.5" cy="981" rx="935.5" ry="256" style="fill:white;"/>
    </g>
    <g transform="matrix(1.96922,0,0,1.2044,-103.665,184.14)">
        <ellipse cx="694" cy="926" rx="15" ry="17" style="fill:white;"/>
    </g>
    <g transform="matrix(1.96922,0,0,1.2044,-75.9173,93.7683)">
        <ellipse cx="694" cy="926" rx="15" ry="17" style="fill:white;"/>
    </g>
    <g transform="matrix(1.96922,0,0,1.2044,-7.88977,29.5198)">
        <ellipse cx="694" cy="926" rx="15" ry="17" style="fill:white;"/>
    </g>
    <g transform="matrix(1.96922,0,0,1.2044,81.6201,-12.8418)">
        <ellipse cx="694" cy="926" rx="15" ry="17" style="fill:white;"/>
    </g>
    <g transform="matrix(1.96922,0,0,1.2044,174.71,-43.201)">
        <ellipse cx="694" cy="926" rx="15" ry="17" style="fill:white;"/>
    </g>
    <g transform="matrix(1.96922,0,0,1.2044,510.372,-49.5552)">
        <ellipse cx="694" cy="926" rx="15" ry="17" style="fill:white;"/>
    </g>
    <g transform="matrix(1.96922,0,0,1.2044,398.485,-62.9698)">
        <ellipse cx="694" cy="926" rx="15" ry="17" style="fill:white;"/>
    </g>
    <g transform="matrix(1.96922,0,0,1.2044,288.388,-57.3215)">
        <ellipse cx="694" cy="926" rx="15" ry="17" style="fill:white;"/>
    </g>
    <g transform="matrix(1.96922,0,0,1.2044,-63.3859,270.981)">
        <ellipse cx="694" cy="926" rx="15" ry="17" style="fill:white;"/>
    </g>
    <g transform="matrix(1.96922,0,0,1.2044,5.53672,337.348)">
        <ellipse cx="694" cy="926" rx="15" ry="17" style="fill:white;"/>
    </g>
    <g transform="matrix(1.96922,0,0,1.2044,91.4662,379.709)">
        <ellipse cx="694" cy="926" rx="15" ry="17" style="fill:white;"/>
    </g>
    <g transform="matrix(1.96922,0,0,1.2044,194.403,405.126)">
        <ellipse cx="694" cy="926" rx="15" ry="17" style="fill:white;"/>
    </g>
    <g transform="matrix(1.96922,0,0,1.2044,307.185,419.247)">
        <ellipse cx="694" cy="926" rx="15" ry="17" style="fill:white;"/>
    </g>
    <g transform="matrix(1.96922,0,0,1.2044,420.863,423.483)">
        <ellipse cx="694" cy="926" rx="15" ry="17" style="fill:white;"/>
    </g>
    <g transform="matrix(1.96922,0,0,1.2044,529.17,408.656)">
        <ellipse cx="694" cy="926" rx="15" ry="17" style="fill:white;"/>
    </g>
    <g transform="matrix(1.96922,0,0,1.2044,646.428,371.943)">
        <ellipse cx="694" cy="926" rx="15" ry="17" style="fill:white;"/>
    </g>
    <g transform="matrix(1.96922,0,0,1.2044,741.308,326.051)">
        <ellipse cx="694" cy="926" rx="15" ry="17" style="fill:white;"/>
    </g>
    <g transform="matrix(1.96922,0,0,1.2044,811.126,251.212)">
        <ellipse cx="694" cy="926" rx="15" ry="17" style="fill:white;"/>
    </g>
    <g transform="matrix(1.96922,0,0,1.2044,625.84,-22.7262)">
        <ellipse cx="694" cy="926" rx="15" ry="17" style="fill:white;"/>
    </g>
    <g transform="matrix(1.96922,0,0,1.2044,717.14,22.4595)">
        <ellipse cx="694" cy="926" rx="15" ry="17" style="fill:white;"/>
    </g>
    <g transform="matrix(1.96922,0,0,1.2044,792.329,82.4718)">
        <ellipse cx="694" cy="926" rx="15" ry="17" style="fill:white;"/>
    </g>
    <g transform="matrix(1.96922,0,0,1.2044,826.342,161.547)">
        <ellipse cx="694" cy="926" rx="15" ry="17" style="fill:white;"/>
    </g>
    <g transform="matrix(2.57838,0,0,1.01843,-3357.51,8.56221)">
        <ellipse cx="1974.5" cy="1271.5" rx="92.5" ry="108.5" style="fill:rgb(78,193,211);"/>
    </g>
</svg>
